Shanghai 2010 BDRip XVID AC3 HQ Hive-CM8


[b]Thx Hive

CM8 Doing It Right The First Time :D

Why download a touched up rip of a rip BRrip
Get the real deal BDRip
Enjoy

Sources:
Video: Chinese Bluray (no hardsubs)
Audio: English DVD-Retail

Video: 720x304 @bitrate 1900 2pass
Audio: Full English 5.1 @448
Sample: yes included
Subs: yes, hardcoded for foreign parts when needed, stripped from full retail subs


 
http://www.imdb.com/title/tt1092634/


General
Complete name : Shanghai.2010.BDRip.XVID.AC3.HQ.Hive-CM8.avi
Format : AVI
Format/Info : Audio Video Interleave
File size : 1.76 GiB
Duration : 1h 46mn
Overall bit rate : 2 351 Kbps
Writing application : Nandub v1.0rc2
Writing library : Nandub build 1853/release

Video
ID : 0
Format : MPEG-4 Visual
Format profile : Advanced Simple@L5
Format settings, BVOP : Yes
Format settings, QPel : Yes
Format settings, GMC : No warppoints
Format settings, Matrix : Default (H.263)
Muxing mode : Packed bitstream
Codec ID : XVID
Codec ID/Hint : XviD
Duration : 1h 46mn
Bit rate : 1 904 Kbps
Width : 720 pixels
Height : 304 pixels
Display aspect ratio : 2.35:1
Frame rate : 23.976 fps
Color space : YUV
Chroma subsampling : 4:2:0
Bit depth : 8 bits
Scan type : Progressive
Bits/(Pixel*Frame) : 0.363
Stream size : 1.42 GiB (81%)
Writing library : XviD 1.2.1 (UTC 2008-12-04)

Audio
ID : 1
Format : AC-3
Format/Info : Audio Coding 3
Mode extension : CM (complete main)
Codec ID : 2000
Duration : 1h 44mn
Bit rate mode : Constant
Bit rate : 448 Kbps
Channel(s) : 6 channels
Channel positions : Front: L C R, Side: L R, LFE
Sampling rate : 48.0 KHz
Bit depth : 16 bits
Video delay : 17ms
Stream size : 335 MiB (19%)
Alignment : Split accross interleaves
Interleave, duration : 43 ms (1.02 video frame)
Interleave, preload duration : 500 ms



John Cusack ... Paul Soames
Jeffrey Dean Morgan ... Connor
Ken Watanabe 
David Morse 
Franka Potente ... German Spy
Yun-Fat Chow ... Anthony Lan-Ting
Li Gong ... Anna Lan-Ting
Gemma Chan ... Shin Shin
Rinko Kikuchi 
Hugh Bonneville ... Ben Sanger
Nicholas Rowe ... Ralph 



In a world filled with secrets, solving a mystery can be murder.

A '40s period piece which revolves around an American expat who returns 
to Shanghai in the months before Pearl Harbor due to the death of his friend.






Greetz

iNK,LUSi,,MAGNET,CLASSiFiED,THC,LEGi0N,IMAGiNE,ViSiON,WBZ,FLAWL3SS,NOVA
Rapeseed,D2U,SAFC,goldadvance,MEMORY100,KaN1vE,Unevano,Pinnz,Wayne,Mr Hive
and all P2P groups 
Great Work Guys :D[/b]








================================== 
http://thepiratebay.org/user/hiest
==================================







Screenshots:
 
http://img830.imageshack.us/img830/863/80970473.png
 
http://img23.imageshack.us/img23/4885/shsh.png
 
http://img190.imageshack.us/img190/2947/shshsh.png
 
http://img3.imageshack.us/img3/4969/shshshsh.png
 
http://img841.imageshack.us/img841/6259/shshshshsh.png
 
http://img153.imageshack.us/img153/1985/shshshshshshshsh.png

